<svg width="18" height="20" viewBox="0 0 18 20" fill="none" xmlns="http://www.w3.org/2000/svg">
<path id="Vector" d="M14.4431 18.921C13.3876 19.9442 12.2351 19.7826 11.1257 19.2979C9.95173 18.8025 8.87465 18.7809 7.63601 19.2979C6.08502 19.9657 5.26644 19.7719 4.34015 18.921C-0.91598 13.5033 -0.140485 5.25286 5.82652 4.95128C7.28058 5.02668 8.29303 5.74832 9.14392 5.81294C10.4149 5.55445 11.632 4.81126 12.9891 4.9082C14.6155 5.03745 15.8433 5.68369 16.6511 6.84694C13.2907 8.86107 14.0877 13.2879 17.1681 14.5265C16.5542 16.1421 15.7572 17.747 14.4324 18.9317L14.4431 18.921ZM9.03621 4.88666C8.87465 2.48478 10.8242 0.502956 13.0645 0.309082C13.3768 3.08794 10.5441 5.15593 9.03621 4.88666Z" fill="#616161"/>
</svg>
