<svg width="14" height="11" viewBox="0 0 14 11" fill="none" xmlns="http://www.w3.org/2000/svg">
<g id="bed">
<g id="Group 37">
<path id="Path 50" d="M13.1311 6.42153V1.88825C13.1307 1.59815 13.0153 1.32004 12.8102 1.11483C12.6052 0.90963 12.3271 0.794065 12.037 0.793457H2.18007C1.8897 0.79366 1.61127 0.909042 1.40588 1.11429C1.20049 1.31954 1.08491 1.59789 1.08451 1.88825V6.42075C0.918619 6.51617 0.780728 6.65352 0.684653 6.81903C0.588579 6.98453 0.537698 7.17238 0.537109 7.36375L0.537109 8.46008C0.537515 8.75031 0.652989 9.02854 0.858215 9.23377C1.06344 9.43899 1.34167 9.55447 1.6319 9.55487V10.3767C1.6319 10.4493 1.66074 10.5189 1.71207 10.5703C1.7634 10.6216 1.83301 10.6504 1.9056 10.6504H2.45376C2.50477 10.6502 2.55469 10.6357 2.5979 10.6086C2.64112 10.5815 2.6759 10.5429 2.69833 10.4971L3.16983 9.55334H11.045L11.5165 10.4971C11.5389 10.5429 11.5737 10.5815 11.6169 10.6086C11.6601 10.6357 11.71 10.6502 11.761 10.6504H12.3084C12.381 10.6504 12.4506 10.6216 12.502 10.5703C12.5533 10.5189 12.5821 10.4493 12.5821 10.3767V9.55411C12.8725 9.55411 13.151 9.43892 13.3565 9.23381C13.5621 9.02871 13.6779 8.75044 13.6785 8.46008V7.36375C13.6777 7.17251 13.6268 6.98482 13.5307 6.81946C13.4347 6.6541 13.2968 6.51688 13.1311 6.42153ZM1.63114 1.88902C1.63134 1.7439 1.68908 1.60478 1.79169 1.50217C1.8943 1.39956 2.03342 1.34182 2.17853 1.34162H12.037C12.1822 1.34182 12.3213 1.39956 12.4239 1.50217C12.5265 1.60478 12.5842 1.7439 12.5844 1.88902V6.26972H11.8837C11.9167 6.22986 11.9535 6.19306 11.9841 6.15319C12.0165 6.10731 12.0338 6.05254 12.0338 5.99641C12.0338 5.94027 12.0165 5.88551 11.9841 5.83963C11.8607 5.64393 11.6915 5.48117 11.4912 5.36538C11.2908 5.24959 11.0654 5.18422 10.8341 5.17493H8.85463C8.62342 5.18422 8.39795 5.24959 8.19761 5.36538C7.99728 5.48117 7.8281 5.64393 7.70463 5.83963C7.6723 5.88551 7.65494 5.94027 7.65494 5.99641C7.65494 6.05254 7.6723 6.10731 7.70463 6.15319C7.7353 6.19689 7.7721 6.22986 7.80507 6.26972H6.40974C6.44271 6.22986 6.47951 6.19306 6.51017 6.15319C6.54251 6.10731 6.55987 6.05254 6.55987 5.99641C6.55987 5.94027 6.54251 5.88551 6.51017 5.83963C6.38671 5.64393 6.21753 5.48117 6.0172 5.36538C5.81686 5.24959 5.59138 5.18422 5.36018 5.17493H3.37913C3.14792 5.18422 2.92244 5.24959 2.72211 5.36538C2.52178 5.48117 2.35259 5.64393 2.22913 5.83963C2.1968 5.88551 2.17944 5.94027 2.17944 5.99641C2.17944 6.05254 2.1968 6.10731 2.22913 6.15319C2.2598 6.19689 2.2966 6.22986 2.32957 6.26972H1.6319L1.63114 1.88902ZM11.4084 5.99526C11.3366 6.07765 11.2486 6.14445 11.15 6.19152C11.0514 6.2386 10.9441 6.26495 10.8349 6.26896H8.85463C8.74541 6.26495 8.63818 6.2386 8.53954 6.19152C8.44091 6.14445 8.35297 6.07765 8.28116 5.99526C8.35297 5.91287 8.44091 5.84608 8.53954 5.799C8.63818 5.75193 8.74541 5.72557 8.85463 5.72156H10.8364C10.9455 5.72568 11.0526 5.75208 11.1511 5.79915C11.2496 5.84622 11.3374 5.91297 11.4091 5.99526H11.4084ZM5.93288 5.99526C5.86107 6.07765 5.77313 6.14445 5.6745 6.19152C5.57587 6.2386 5.46863 6.26495 5.35942 6.26896H3.37913C3.26991 6.26495 3.16267 6.2386 3.06404 6.19152C2.96541 6.14445 2.87747 6.07765 2.80566 5.99526C2.87747 5.91287 2.96541 5.84608 3.06404 5.799C3.16267 5.75193 3.26991 5.72557 3.37913 5.72156H5.36095C5.47003 5.72568 5.57712 5.75208 5.67562 5.79915C5.77411 5.84622 5.86192 5.91297 5.93364 5.99526H5.93288ZM2.28357 10.1015H2.18007V9.55411H2.5588L2.28357 10.1015ZM12.0347 10.1015H11.9297L11.656 9.55411H12.037L12.0347 10.1015ZM13.1311 8.46008C13.1309 8.6052 13.0731 8.74431 12.9705 8.84693C12.8679 8.94954 12.7288 9.00727 12.5837 9.00747H1.6319C1.48679 9.00727 1.34767 8.94954 1.24506 8.84693C1.14245 8.74431 1.08471 8.6052 1.08451 8.46008V7.36375C1.08471 7.21864 1.14245 7.07952 1.24506 6.97691C1.34767 6.87429 1.48679 6.81656 1.6319 6.81636H12.5829C12.728 6.81656 12.8671 6.87429 12.9698 6.97691C13.0724 7.07952 13.1301 7.21864 13.1303 7.36375L13.1311 8.46008Z" fill="#122D4D" stroke="#122D4D" stroke-width="0.1"/>
</g>
</g>
</svg>
