<svg width="24" height="25" viewBox="0 0 24 25" fill="none" xmlns="http://www.w3.org/2000/svg">
<g id="eva:email-fill">
<g id="evaEmailFill0">
<g id="evaEmailFill1">
<path id="evaEmailFill2" d="M19 4.44897H5C4.20435 4.44897 3.44129 4.76505 2.87868 5.32765C2.31607 5.89026 2 6.65333 2 7.44897V17.449C2 18.2446 2.31607 19.0077 2.87868 19.5703C3.44129 20.1329 4.20435 20.449 5 20.449H19C19.7956 20.449 20.5587 20.1329 21.1213 19.5703C21.6839 19.0077 22 18.2446 22 17.449V7.44897C22 6.65333 21.6839 5.89026 21.1213 5.32765C20.5587 4.76505 19.7956 4.44897 19 4.44897ZM19 6.44897L12.5 10.919C12.348 11.0067 12.1755 11.0529 12 11.0529C11.8245 11.0529 11.652 11.0067 11.5 10.919L5 6.44897H19Z" fill="#006EFF"/>
</g>
</g>
</g>
</svg>
