<svg width="20" height="20" viewBox="0 0 20 20" fill="none" xmlns="http://www.w3.org/2000/svg">
<g id="Group 1437">
<path id="Vector" d="M19.6434 8.10525H18.8625V8.06501H10.1371V11.943H15.6161C14.8168 14.2004 12.6689 15.8209 10.1371 15.8209C6.92464 15.8209 4.3201 13.2164 4.3201 10.004C4.3201 6.79158 6.92464 4.18705 10.1371 4.18705C11.6199 4.18705 12.9689 4.74644 13.9961 5.66019L16.7383 2.91798C15.0068 1.30426 12.6907 0.309082 10.1371 0.309082C4.78304 0.309082 0.442139 4.64998 0.442139 10.004C0.442139 15.358 4.78304 19.6989 10.1371 19.6989C15.4911 19.6989 19.832 15.358 19.832 10.004C19.832 9.35395 19.7651 8.71942 19.6434 8.10525Z" fill="#616161"/>
<path id="Vector_2" d="M10.137 19.699C12.6412 19.699 14.9166 18.7406 16.637 17.1822L13.6364 14.6431C12.6303 15.4082 11.401 15.822 10.137 15.821C7.61535 15.821 5.47423 14.2131 4.66761 11.9692L1.5061 14.4051C3.11061 17.5448 6.36907 19.699 10.137 19.699Z" fill="#616161"/>
<path id="Vector_3" d="M19.6433 8.10518H18.8624V8.06494H10.137V11.9429H15.616C15.2337 13.0173 14.5449 13.9561 13.6349 14.6434L13.6363 14.6425L16.6369 17.1816C16.4246 17.3745 19.8319 14.8514 19.8319 10.0039C19.8319 9.35388 19.765 8.71935 19.6433 8.10518Z" fill="#616161"/>
<path id="Vector_4" d="M1.55981 5.4915L4.74508 7.82749C5.60696 5.69364 7.69427 4.18705 10.1369 4.18705C11.6197 4.18705 12.9688 4.74644 13.996 5.66019L16.7382 2.91798C15.0067 1.30426 12.6905 0.309082 10.1369 0.309082C6.41309 0.309082 3.18371 2.41142 1.55981 5.4915Z" fill="#616161"/>
</g>
</svg>
