<svg width="25" height="25" viewBox="0 0 25 25" fill="none" xmlns="http://www.w3.org/2000/svg">
<g id="material-symbols:exercise">
<path id="Vector" d="M21.7249 9.97391L15.6749 3.92391L16.0999 3.49891C16.4832 3.11558 16.9582 2.92791 17.5249 2.93591C18.0916 2.94391 18.5666 3.13991 18.9499 3.52391L22.1749 6.74891C22.5582 7.13225 22.7499 7.60325 22.7499 8.16191C22.7499 8.72058 22.5582 9.19125 22.1749 9.57391L21.7249 9.97391ZM9.3999 22.3489C9.01657 22.7322 8.54557 22.9239 7.9869 22.9239C7.42824 22.9239 6.9579 22.7322 6.5759 22.3489L3.3499 19.1239C2.96657 18.7406 2.7749 18.2696 2.7749 17.7109C2.7749 17.1522 2.96657 16.6816 3.3499 16.2989L3.7499 15.8989L9.7999 21.9489L9.3999 22.3489ZM13.0249 21.6489C12.8249 21.8489 12.5916 21.9489 12.3249 21.9489C12.0582 21.9489 11.8249 21.8489 11.6249 21.6489L4.0499 14.0739C3.8499 13.8739 3.7499 13.6406 3.7499 13.3739C3.7499 13.1072 3.8499 12.8739 4.0499 12.6739L5.4749 11.2239C5.6749 11.0239 5.91257 10.9239 6.1879 10.9239C6.46324 10.9239 6.70057 11.0239 6.8999 11.2239L8.4749 12.7989L12.6249 8.64891L11.0499 7.07391C10.8499 6.87391 10.7499 6.64058 10.7499 6.37391C10.7499 6.10725 10.8499 5.87391 11.0499 5.67391L12.4749 4.22391C12.6749 4.02391 12.9126 3.92391 13.1879 3.92391C13.4632 3.92391 13.7006 4.02391 13.8999 4.22391L21.4749 11.7989C21.6749 11.9989 21.7749 12.2366 21.7749 12.5119C21.7749 12.7872 21.6749 13.0246 21.4749 13.2239L20.0249 14.6489C19.8249 14.8489 19.5916 14.9489 19.3249 14.9489C19.0582 14.9489 18.8249 14.8489 18.6249 14.6489L17.0499 13.0739L12.8999 17.2239L14.4749 18.7989C14.6749 18.9989 14.7749 19.2362 14.7749 19.5109C14.7749 19.7856 14.6749 20.0232 14.4749 20.2239L13.0249 21.6489Z" fill="#006EFF"/>
</g>
</svg>
