<svg width="25" height="25" viewBox="0 0 25 25" fill="none" xmlns="http://www.w3.org/2000/svg">
<g id="bxs:car-wash">
<path id="Vector" d="M21.522 14.104L20.154 9.99995C19.9556 9.40243 19.5738 8.88265 19.0631 8.51446C18.5524 8.14627 17.9386 7.94839 17.309 7.94895H8.191C7.56139 7.94839 6.94761 8.14627 6.43688 8.51446C5.92615 8.88265 5.54445 9.40243 5.346 9.99995L3.978 14.104C3.6143 14.2563 3.30371 14.5127 3.08523 14.8409C2.86676 15.1692 2.75013 15.5546 2.75 15.949V18.9489C2.75 19.687 3.154 20.3249 3.75 20.6719V21.9489C3.75 22.2142 3.85536 22.4685 4.04289 22.6561C4.23043 22.8436 4.48478 22.9489 4.75 22.9489H5.75C6.01522 22.9489 6.26957 22.8436 6.45711 22.6561C6.64464 22.4685 6.75 22.2142 6.75 21.9489V20.9489H18.75V21.9489C18.75 22.2142 18.8554 22.4685 19.0429 22.6561C19.2304 22.8436 19.4848 22.9489 19.75 22.9489H20.75C21.0152 22.9489 21.2696 22.8436 21.4571 22.6561C21.6446 22.4685 21.75 22.2142 21.75 21.9489V20.6719C22.0534 20.498 22.3056 20.2471 22.4811 19.9446C22.6567 19.6421 22.7494 19.2987 22.75 18.9489V15.949C22.75 15.118 22.243 14.407 21.522 14.104ZM8.191 9.94895H17.308C17.518 9.9489 17.7226 10.0149 17.893 10.1377C18.0633 10.2605 18.1907 10.4337 18.257 10.633L19.363 13.949H6.137L7.242 10.633C7.379 10.224 7.761 9.94895 8.191 9.94895ZM6.25 18.9489C6.05295 18.9489 5.85785 18.91 5.67582 18.8345C5.4938 18.7591 5.32842 18.6485 5.18913 18.5091C4.90783 18.2276 4.74987 17.8459 4.75 17.448C4.75013 17.05 4.90835 16.6684 5.18984 16.3871C5.47133 16.1058 5.85304 15.9478 6.251 15.948C6.64896 15.9481 7.03056 16.1063 7.31187 16.3878C7.59317 16.6693 7.75113 17.051 7.751 17.449C7.75087 17.8469 7.59265 18.2285 7.31116 18.5098C7.02967 18.7911 6.64796 18.9491 6.25 18.9489ZM19.25 18.9489C18.852 18.9488 18.4704 18.7906 18.1891 18.5091C17.9078 18.2276 17.7499 17.8459 17.75 17.448C17.7501 17.05 17.9083 16.6684 18.1898 16.3871C18.4713 16.1058 18.853 15.9478 19.251 15.948C19.649 15.9481 20.0306 16.1063 20.3119 16.3878C20.5932 16.6693 20.7511 17.051 20.751 17.449C20.7509 17.8469 20.5927 18.2285 20.3112 18.5098C20.0297 18.7911 19.648 18.9491 19.25 18.9489ZM9.75 5.32695C9.755 4.23895 8.713 3.27595 8.363 2.98295C8.33118 2.9559 8.29077 2.94104 8.249 2.94104C8.20723 2.94104 8.16682 2.9559 8.135 2.98295C7.783 3.27395 6.745 4.21995 6.75 5.32595C6.75 6.22095 7.423 6.94895 8.25 6.94895C9.077 6.94895 9.75 6.22095 9.75 5.32695ZM14.25 5.32695C14.255 4.23895 13.213 3.27495 12.863 2.98295C12.8312 2.9559 12.7908 2.94104 12.749 2.94104C12.7072 2.94104 12.6668 2.9559 12.635 2.98295C12.282 3.27395 11.244 4.22095 11.249 5.32695C11.25 6.22095 11.923 6.94895 12.75 6.94895C13.577 6.94895 14.25 6.22095 14.25 5.32695ZM18.75 5.32695C18.755 4.23895 17.713 3.27495 17.363 2.98295C17.3312 2.9559 17.2908 2.94104 17.249 2.94104C17.2072 2.94104 17.1668 2.9559 17.135 2.98295C16.783 3.27395 15.745 4.21995 15.75 5.32595C15.75 6.22095 16.423 6.94895 17.25 6.94895C18.077 6.94895 18.75 6.22095 18.75 5.32695Z" fill="#006EFF"/>
</g>
</svg>
