<svg width="21" height="16" viewBox="0 0 21 16" fill="none" xmlns="http://www.w3.org/2000/svg">
<rect x="0.680176" width="20.1399" height="15.1002" rx="7.55009" fill="white"/>
<path fill-rule="evenodd" clip-rule="evenodd" d="M0.680176 1.88752C0.680176 1.38692 0.879039 0.906823 1.23302 0.552844C1.587 0.198865 2.0671 0 2.5677 0H18.9325C19.4331 0 19.9132 0.198865 20.2672 0.552844C20.6212 0.906823 20.82 1.38692 20.82 1.88752V13.2127C20.82 13.7133 20.6212 14.1934 20.2672 14.5473C19.9132 14.9013 19.4331 15.1002 18.9325 15.1002H2.5677C2.06785 15.1002 1.58841 14.9019 1.23456 14.5489C0.880702 14.1958 0.681329 13.7169 0.680176 13.217L0.680176 1.88752ZM2.5677 1.25883C2.40096 1.25883 2.24105 1.32507 2.12315 1.44297C2.00524 1.56087 1.93901 1.72078 1.93901 1.88752V13.2127C1.93901 13.2952 1.95527 13.377 1.98686 13.4532C2.01846 13.5295 2.06477 13.5988 2.12315 13.6572C2.18153 13.7156 2.25083 13.7619 2.32711 13.7935C2.40338 13.8251 2.48514 13.8413 2.5677 13.8413H18.9325C19.0975 13.8398 19.2553 13.7735 19.3718 13.6567C19.4883 13.5399 19.5543 13.382 19.5554 13.217V1.89188C19.5554 1.72514 19.4892 1.56523 19.3713 1.44733C19.2534 1.32942 19.0934 1.26319 18.9267 1.26319L2.5677 1.25883Z" fill="#006EFF"/>
<path fill-rule="evenodd" clip-rule="evenodd" d="M3.19776 3.14772C3.19756 3.06503 3.21369 2.98313 3.24519 2.90668C3.2767 2.83024 3.32298 2.76076 3.38138 2.70223C3.43978 2.64369 3.50915 2.59726 3.58552 2.56557C3.66189 2.53389 3.74376 2.51758 3.82645 2.51758H7.60149C7.76842 2.51758 7.92851 2.58389 8.04655 2.70193C8.16459 2.81997 8.2309 2.98006 8.2309 3.14699C8.2309 3.31392 8.16459 3.47402 8.04655 3.59206C7.92851 3.7101 7.76842 3.77641 7.60149 3.77641H4.45659V6.92276C4.45659 7.0897 4.39027 7.24979 4.27223 7.36783C4.1542 7.48587 3.9941 7.55218 3.82717 7.55218C3.66024 7.55218 3.50015 7.48587 3.38211 7.36783C3.26407 7.24979 3.19776 7.0897 3.19776 6.92276V3.14772ZM18.2979 11.9595C18.2979 12.0422 18.2816 12.1241 18.2499 12.2005C18.2182 12.2768 18.1718 12.3462 18.1133 12.4046C18.0547 12.463 17.9853 12.5093 17.9088 12.5408C17.8324 12.5723 17.7505 12.5884 17.6678 12.5882H13.8927C13.7258 12.5882 13.5657 12.5219 13.4477 12.4039C13.3296 12.2858 13.2633 12.1257 13.2633 11.9588C13.2633 11.7919 13.3296 11.6318 13.4477 11.5138C13.5657 11.3957 13.7258 11.3294 13.8927 11.3294H17.0391V8.18305C17.0391 8.01612 17.1054 7.85602 17.2234 7.73798C17.3415 7.61995 17.5016 7.55363 17.6685 7.55363C17.8354 7.55363 17.9955 7.61995 18.1136 7.73798C18.2316 7.85602 18.2979 8.01612 18.2979 8.18305V11.9595Z" fill="#006EFF"/>
</svg>
