<svg width="186" height="23" viewBox="0 0 186 23" fill="none" xmlns="http://www.w3.org/2000/svg">
<path d="M101.5 16.0498V6.32134C101.497 5.17616 101.05 4.07869 100.255 3.26892C99.4608 2.45915 98.3843 2.00293 97.2609 2H90.7391C89.6157 2.00293 88.5392 2.45915 87.7448 3.26892C86.9504 4.07869 86.5029 5.17616 86.5 6.32134V22L93.7609 16.4598L101.467 21.7451L101.5 16.0498Z" stroke="#8895A7" stroke-width="1.5" stroke-linecap="round" stroke-linejoin="round"/>
<path d="M94.5 5H96.5302C97.0526 5 97.5537 5.17216 97.9231 5.47861C98.2925 5.78507 98.5 6.20071 98.5 6.63409V9" stroke="#8895A7" stroke-width="1.5" stroke-linecap="round" stroke-linejoin="round"/>
<path d="M184.5 21V19C184.5 17.9391 184.079 16.9217 183.328 16.1716C182.578 15.4214 181.561 15 180.5 15H172.5C171.439 15 170.422 15.4214 169.672 16.1716C168.921 16.9217 168.5 17.9391 168.5 19V21" stroke="#8694A6" stroke-width="1.5" stroke-linecap="round" stroke-linejoin="round"/>
<path d="M176.5 11C178.709 11 180.5 9.20914 180.5 7C180.5 4.79086 178.709 3 176.5 3C174.291 3 172.5 4.79086 172.5 7C172.5 9.20914 174.291 11 176.5 11Z" stroke="#8694A6" stroke-width="1.5" stroke-linecap="round" stroke-linejoin="round"/>
<path d="M21.5 9.58202C21.4599 11.3359 20.9259 13.0363 19.9675 14.4618C18.3549 16.868 16.3223 18.9197 13.9811 20.5042C13.3107 20.9896 12.6282 21.4495 11.9099 21.871C11.7866 21.9552 11.6432 22 11.4968 22C11.3504 22 11.2071 21.9552 11.0838 21.871C8.26006 20.2348 5.75004 18.0463 3.68462 15.4199C2.66645 14.1606 1.95866 12.6502 1.62532 11.0255C1.35718 9.52956 1.52161 7.98199 2.0968 6.58802C2.672 5.19406 3.63077 4.01959 4.84597 3.22041C7.05739 1.53487 9.76888 0.76732 12.4726 1.06153C16.8426 1.38089 20.626 4.42124 21.3204 8.13859C21.4203 8.61312 21.4804 9.09612 21.5 9.58202Z" stroke="#8895A7" stroke-width="1.5" stroke-miterlimit="10"/>
<circle cx="11.5" cy="10" r="3.25" stroke="#8694A6" stroke-width="1.5"/>
</svg>
