<svg width="14" height="14" viewBox="0 0 14 14" fill="none" xmlns="http://www.w3.org/2000/svg">
<path id="Vector" d="M13.8085 12.8193L11.2111 10.2428C12.2193 8.98571 12.7076 7.39007 12.5755 5.78401C12.4434 4.17794 11.701 2.68353 10.5009 1.60806C9.30075 0.532584 7.7342 -0.0422078 6.12332 0.00187178C4.51243 0.0459513 2.97966 0.705552 1.84016 1.84505C0.700669 2.98454 0.0410685 4.51731 -0.00301103 6.1282C-0.0470906 7.73908 0.527701 9.30564 1.60318 10.5057C2.67865 11.7058 4.17306 12.4483 5.77912 12.5804C7.38519 12.7125 8.98083 12.2242 10.238 11.216L12.8144 13.7924C12.8795 13.858 12.9569 13.9101 13.0422 13.9457C13.1275 13.9812 13.219 13.9995 13.3115 13.9995C13.4039 13.9995 13.4954 13.9812 13.5807 13.9457C13.666 13.9101 13.7435 13.858 13.8085 13.7924C13.9347 13.6619 14.0053 13.4874 14.0053 13.3058C14.0053 13.1243 13.9347 12.9498 13.8085 12.8193ZM6.3103 11.216C5.34101 11.216 4.39349 10.9286 3.58756 10.3901C2.78162 9.85155 2.15348 9.08615 1.78254 8.19064C1.41161 7.29514 1.31456 6.30975 1.50366 5.35908C1.69276 4.40842 2.15952 3.53518 2.84491 2.84979C3.5303 2.1644 4.40354 1.69764 5.3542 1.50854C6.30487 1.31944 7.29025 1.4165 8.18576 1.78743C9.08127 2.15836 9.84667 2.78651 10.3852 3.59244C10.9237 4.39838 11.2111 5.3459 11.2111 6.31518C11.2111 7.61496 10.6948 8.8615 9.7757 9.78058C8.85662 10.6997 7.61008 11.216 6.3103 11.216Z" fill="#246BFD"/>
</svg>
