<svg width="13" height="10" viewBox="0 0 13 10" fill="none" xmlns="http://www.w3.org/2000/svg">
<g id="Group 41">
<g id="svgviewer-output (7)">
<path id="Path 51" fill-rule="evenodd" clip-rule="evenodd" d="M0 1.19697C0 0.885343 0.123794 0.586478 0.34415 0.366123C0.564505 0.145768 0.863371 0.0219727 1.175 0.0219727H11.3623C11.6739 0.0219727 11.9727 0.145768 12.1931 0.366123C12.4135 0.586478 12.5373 0.885343 12.5373 1.19697V8.24697C12.5373 8.5586 12.4135 8.85747 12.1931 9.07782C11.9727 9.29818 11.6739 9.42197 11.3623 9.42197H1.175C0.86384 9.42198 0.565384 9.29855 0.345107 9.07878C0.124829 8.85901 0.000718062 8.56084 0 8.24968L0 1.19697ZM1.175 0.805608C1.0712 0.805608 0.971658 0.84684 0.898263 0.920235C0.824868 0.99363 0.783635 1.09318 0.783635 1.19697V8.24697C0.783635 8.29837 0.793758 8.34926 0.813426 8.39674C0.833093 8.44422 0.861921 8.48737 0.898263 8.52371C0.934605 8.56005 0.977748 8.58888 1.02523 8.60855C1.07271 8.62821 1.12361 8.63834 1.175 8.63834H11.3623C11.465 8.63739 11.5632 8.59611 11.6357 8.5234C11.7082 8.4507 11.7493 8.35239 11.75 8.24968V1.19968C11.75 1.09589 11.7088 0.996342 11.6354 0.922947C11.562 0.849551 11.4624 0.80832 11.3586 0.80832L1.175 0.805608Z" fill="#122D4D"/>
<path id="Path 52" fill-rule="evenodd" clip-rule="evenodd" d="M1.56738 1.98162C1.56726 1.93015 1.5773 1.87916 1.59692 1.83158C1.61653 1.78399 1.64534 1.74074 1.68169 1.7043C1.71805 1.66786 1.76123 1.63896 1.80877 1.61923C1.85631 1.59951 1.90728 1.58936 1.95875 1.58936H4.30875C4.41267 1.58936 4.51233 1.63064 4.58581 1.70412C4.65929 1.7776 4.70057 1.87725 4.70057 1.98117C4.70057 2.08509 4.65929 2.18475 4.58581 2.25823C4.51233 2.33171 4.41267 2.37299 4.30875 2.37299H2.35102V4.33163C2.35102 4.43554 2.30974 4.5352 2.23626 4.60868C2.16278 4.68216 2.06312 4.72344 1.9592 4.72344C1.85529 4.72344 1.75563 4.68216 1.68215 4.60868C1.60867 4.5352 1.56738 4.43554 1.56738 4.33163V1.98162ZM10.9674 7.46707C10.9674 7.51854 10.9572 7.5695 10.9375 7.61705C10.9178 7.66459 10.8889 7.70777 10.8524 7.74413C10.816 7.78048 10.7727 7.80929 10.7252 7.8289C10.6776 7.84852 10.6266 7.85855 10.5751 7.85843H8.22512C8.1212 7.85843 8.02154 7.81715 7.94806 7.74367C7.87458 7.67019 7.8333 7.57053 7.8333 7.46661C7.8333 7.3627 7.87458 7.26304 7.94806 7.18956C8.02154 7.11608 8.1212 7.0748 8.22512 7.0748H10.1838V5.11616C10.1838 5.01225 10.225 4.91259 10.2985 4.83911C10.372 4.76563 10.4717 4.72434 10.5756 4.72434C10.6795 4.72434 10.7791 4.76563 10.8526 4.83911C10.9261 4.91259 10.9674 5.01225 10.9674 5.11616V7.46707Z" fill="#122D4D"/>
</g>
</g>
</svg>
