<svg width="25" height="25" viewBox="0 0 25 25" fill="none" xmlns="http://www.w3.org/2000/svg">
<g id="map:swimming" clip-path="url(#clip0_107_286)">
<path id="Vector" d="M23.77 20.149C23.2811 20.1489 22.7979 20.044 22.353 19.8413C21.8943 19.6329 21.3967 19.5243 20.8929 19.5226C20.388 19.5246 19.8893 19.6332 19.4293 19.8413C18.9845 20.0438 18.5014 20.1486 18.0126 20.1486C17.5238 20.1486 17.0407 20.0438 16.5959 19.8413C16.1357 19.6343 15.6374 19.5257 15.1329 19.5226C14.6281 19.5249 14.1294 19.6335 13.6693 19.8413C13.2236 20.0438 12.7398 20.1486 12.2502 20.1486C11.7607 20.1486 11.2768 20.0438 10.8311 19.8413C10.3732 19.6335 9.87662 19.5249 9.37382 19.5226C8.86917 19.5249 8.37067 19.6335 7.91078 19.8413C7.4652 20.0439 6.98139 20.1488 6.4919 20.1488C6.00241 20.1488 5.5186 20.0439 5.07302 19.8413C4.61326 19.6331 4.11468 19.5245 3.60998 19.5226C3.10709 19.5254 2.61042 19.634 2.15222 19.8413C1.70533 20.0436 1.22052 20.1485 0.72998 20.149V18.0389C1.21977 18.0361 1.7038 17.9331 2.15222 17.736C2.60919 17.5245 3.10644 17.4142 3.60998 17.4125C4.13126 17.4125 4.63094 17.5325 5.07302 17.736C5.51891 17.933 6.00059 18.0361 6.48806 18.0389C6.97809 18.0369 7.46243 17.9338 7.91078 17.736C8.36943 17.5239 8.86852 17.4136 9.37382 17.4125C9.89126 17.4125 10.3885 17.5325 10.8311 17.736C11.2789 17.9333 11.7626 18.0364 12.2519 18.0389C12.7402 18.0363 13.2227 17.9332 13.6693 17.736C14.1282 17.524 14.6274 17.4136 15.1329 17.4125C15.6479 17.4125 16.1471 17.5325 16.5959 17.736C17.0255 17.9247 17.5079 18.0389 18.0119 18.0389C18.5002 18.0368 18.9828 17.9336 19.4293 17.736C19.8881 17.5236 20.3874 17.4133 20.8929 17.4125C21.4141 17.4125 21.9129 17.5325 22.353 17.736C22.7994 17.9335 23.2818 18.0366 23.77 18.0389V20.149ZM20.433 14.1797C21.946 14.1797 23.1738 12.9557 23.1738 11.4543C23.1738 9.95138 21.946 8.73362 20.433 8.73362C18.9177 8.73362 17.6913 9.95186 17.6913 11.4543C17.6913 12.9557 18.8087 14.1797 20.433 14.1797ZM4.46966 15.7119C4.6823 15.7623 4.88294 15.8357 5.0735 15.9211C5.51856 16.1218 6.00083 16.2266 6.48902 16.2288C6.99302 16.2288 7.48214 16.1146 7.91126 15.9211C8.37061 15.711 8.8692 15.6005 9.3743 15.5967C9.89174 15.5967 10.39 15.7224 10.8316 15.9211C11.2784 16.122 11.7625 16.2268 12.2524 16.2288C12.7516 16.2288 13.2402 16.1146 13.6693 15.9211C14.1289 15.7111 14.6276 15.6005 15.1329 15.5967C15.6484 15.5967 16.1481 15.7224 16.5959 15.9211C17.026 16.1141 17.5079 16.2288 18.0129 16.2288C18.3801 16.2288 18.7338 16.1669 19.0674 16.0627L14.4954 7.87586L19.8133 6.9125C20.5938 6.76466 21.1602 6.15602 21.1602 5.37698C21.1602 4.51778 20.4561 3.82898 19.5945 3.82898L19.4169 3.83426L11.2021 5.31842C10.6257 5.44946 9.86198 6.28754 10.2969 7.3157L10.3669 7.4813L12.5106 11.3227L4.46966 15.7119Z" fill="#006EFF"/>
</g>
<defs>
<clipPath id="clip0_107_286">
<rect width="24" height="24" fill="white" transform="translate(0.25 0.948975)"/>
</clipPath>
</defs>
</svg>
