<svg width="18" height="17" viewBox="0 0 18 17" fill="none" xmlns="http://www.w3.org/2000/svg">
<path id="Vector" d="M16.7817 5.85622L11.6654 5.12625L9.3783 0.574303C9.31583 0.449674 9.21307 0.348783 9.08612 0.287457C8.76774 0.133154 8.38084 0.26174 8.22165 0.574303L5.93455 5.12625L0.818296 5.85622C0.677241 5.87601 0.548276 5.94129 0.449538 6.0402C0.330169 6.16065 0.264391 6.32269 0.266658 6.49073C0.268925 6.65877 0.339052 6.81904 0.461629 6.93635L4.16331 10.4794L3.28877 15.4824C3.26826 15.5988 3.28138 15.7184 3.32663 15.8279C3.37189 15.9373 3.44748 16.0321 3.54482 16.1015C3.64216 16.1709 3.75737 16.2122 3.87737 16.2206C3.99737 16.229 4.11737 16.2042 4.22376 16.149L8.79998 13.787L13.3762 16.149C13.5011 16.2143 13.6462 16.2361 13.7853 16.2123C14.1359 16.153 14.3716 15.8266 14.3112 15.4824L13.4366 10.4794L17.1383 6.93635C17.2391 6.83941 17.3056 6.7128 17.3257 6.57433C17.3801 6.22813 17.1343 5.90766 16.7817 5.85622Z" fill="#E2EBFF"/>
</svg>
